<svg id="Layer_1" data-name="Layer 1" xmlns="http://www.w3.org/2000/svg" viewBox="0 0 200 200"><title>Untitled-1</title><path d="M120,20A100,100,0,1,0,220,120,100,100,0,0,0,120,20Zm30.87,28.59a14.09,14.09,0,1,1-14.08,14.08A14.09,14.09,0,0,1,150.87,48.59ZM103.39,151.13a8.46,8.46,0,0,1-7,3.87H96.36s-24.7-1.26-31.07-1.77c-7.56-.61-10.21-2.48-10.21-5.88s3.15-5.34,8.39-5.65c6.85-.4,28.92-1.72,28.92-1.72l8.15-11.79a21.23,21.23,0,0,0,5.2,6.3l0.26,0.22,0.28,0.19,5.82,3.82Zm46.87-4.51L133.21,179c-5.43,10-9.28,11.24-11.89,10.13s-3.3-5.81.52-15l11.78-27.91-24.21-16c-7-6-5.73-11.2-1.82-18l17-25.32L112,84.17,90.57,95.93c-2.28,1.38-6.62,2.46-7.89.57-2-2.92.9-6.18,3.9-8.78L107.09,72a6.48,6.48,0,0,1,4.94-1l22.23,4.83A6.3,6.3,0,0,1,137,77.32l11.12,7.46c1.69,1.14.9,5.65-.23,7.34l-19.79,31.71,19.45,13.33A7.69,7.69,0,0,1,150.26,146.63Zm25.23-28.94c-4.25.23-22.74,0.57-22.74,0.57-2.23-.27-4.3-2.26-5.22-4.31l-2.64-6.33,7.77-12.44c0.09-.14.17-0.34,0.26-0.49l5.53,12.53,18.62,1.34c4,0.29,8.17.61,8,5C185,116.6,180,117.44,175.49,117.68Z" transform="translate(-20 -20)"/></svg>