<?xml version="1.0" encoding="utf-8"?>
<!-- Generator: Adobe Illustrator 15.0.0, SVG Export Plug-In . SVG Version: 6.00 Build 0)  -->
<!DOCTYPE svg PUBLIC "-//W3C//DTD SVG 1.1//EN" "http://www.w3.org/Graphics/SVG/1.1/DTD/svg11.dtd">
<svg xmlns="http://www.w3.org/2000/svg" xmlns:xlink="http://www.w3.org/1999/xlink" version="1.1" id="Слой_1" x="0px" y="0px" width="50px" height="50px" viewBox="0 0 50 50" enable-background="new 0 0 50 50" xml:space="preserve" fill="#d41c5b">
<path d="M25.2,0C11.525,0,0.4,9.914,0.4,22.1c0,5.857,2.547,11.356,7.184,15.537c-0.301,5.09-4.371,8.075-6.356,9.532  c-0.369,0.271-0.671,0.494-0.878,0.671c-0.282,0.241-0.407,0.619-0.325,0.98c0.082,0.361,0.357,0.648,0.715,0.745  c1.061,0.286,2.227,0.431,3.465,0.431c5.716,0,12.405-3.084,16.277-6.229c1.661,0.288,3.247,0.434,4.719,0.434  c13.675,0,24.8-9.914,24.8-22.1S38.875,0,25.2,0z M26.2,33.2h-2.7v-2.9h2.7V33.2z M30.7,20.6c-0.4,0.6-1.2,1.5-2.5,2.7  c-0.9,0.9-1.5,1.6-1.8,2.2C26.1,26,26,26.8,26,28h-2.5c0-1.3,0.2-2.4,0.5-3.2s1-1.7,2.1-2.8l1.101-1.1c0.3-0.3,0.6-0.6,0.8-1  c0.4-0.6,0.6-1.2,0.6-1.9c0-0.9-0.3-1.7-0.8-2.3c-0.5-0.7-1.5-1-2.7-1c-1.6,0-2.7,0.6-3.3,1.7c-0.3,0.6-0.5,1.6-0.6,2.7h-2.5  c0.1-1.9,0.6-3.5,1.8-4.7c1.1-1.2,2.7-1.8,4.7-1.8c1.8,0,3.3,0.5,4.399,1.6c1.101,1,1.7,2.4,1.7,4C31.3,19.2,31.1,20,30.7,20.6z" fill="#d41c5b"/>
</svg>
