<svg id="opencbl" xmlns="http://www.w3.org/2000/svg" viewBox="0 0 3850.48 749.64"><defs><style>.cls-1{fill:#e81f64;}.cls-2{fill:#f8bbcf;}.cls-3{fill:#c21e5c;}</style></defs><title>logo</title><g id="logo"><polygon id="l" class="cls-1" points="3850.48 662.83 3850.48 548.08 3700.48 461.67 3700.48 289.29 3700.48 288.85 3700.48 173.65 3700.48 0.85 3600.48 58.59 3600.48 231.25 3600.48 231.29 3600.48 519.26 3850.24 663.27 3850.83 663 3850.48 662.83"/><path id="b" class="cls-1" d="M3250.48,87.25l-150,86.4V0.64l-100,57.74V231.07l0.15,0.09-0.15.09v288l250,144,250-144v-288Zm150,374.42-150,86.41-150-86.41V288.85l150-86.41,150,86.41V461.67Z"/><path id="c" class="cls-1" d="M2900.07,230.81m0,288-100-57.56-149.8,86.41-149.8-86.41V288.42L2650.27,202l149.9,86.6,99.95-57.8-249.82-144-249.82,144v288l249.8,144,249.9-144-100.05-58m-0.05,0"/><polygon id="n" class="cls-1" points="2050.48 86.82 1800.48 230.83 1800.48 518.84 1900.48 576.45 1900.48 461.25 1900.48 460.83 1900.48 288.42 2050.48 202.01 2200.48 288.42 2200.48 460.83 2200.48 461.25 2200.48 576.45 2300.48 518.84 2300.48 230.83 2050.48 86.82"/><polygon id="e" class="cls-1" points="1700.48 347 1700.48 230.84 1450.48 86.84 1200.48 230.85 1200.48 518.87 1450.24 662.87 1700.36 518.87 1600.48 460.83 1600.48 461.37 1450.48 547.73 1300.48 461.27 1300.48 288.45 1450.24 202.13 1600.12 288.83 1450.84 375.28 1548.08 431.15 1700.48 347"/><path id="p" class="cls-1" d="M850.48,87.64l-250,144v288l0.15,0.09-0.15.09V692.53l100,57.74v-173l150,86.4,250-144v-288Zm150,374.42-150,86.41-150-86.41V289.24l150-86.41,150,86.41V462.06Z"/><g id="o"><polygon class="cls-1" points="250.24 375.83 373.59 158.76 250.3 87.64 0.48 231.64 0.48 519.65 250.48 663.66 500.48 519.65 500.48 231.9 250.24 375.83"/><polygon class="cls-2" points="500.13 232.63 250 376.64 500 376.64 500.13 232.63"/><polygon class="cls-3" points="250 376.64 500 376.64 499.75 419.28 250 376.64"/></g></g></svg>