<svg id="Layer_1" data-name="Layer 1" xmlns="http://www.w3.org/2000/svg" viewBox="0 0 200 200"><title>question</title><path d="M100,0A100,100,0,1,0,200,100,100,100,0,0,0,100,0Zm6.18,152.61a12.31,12.31,0,1,1,3.63-8.73A11.91,11.91,0,0,1,106.18,152.61Zm26.57-68.44a31.87,31.87,0,0,1-4.87,8.27,38.09,38.09,0,0,1-6.41,6.18q-3.48,2.63-6.41,5a31.05,31.05,0,0,0-4.87,4.87,9,9,0,0,0-1.93,5.72v1.08a6,6,0,0,1-2.86,5.41,14.23,14.23,0,0,1-7.8,1.85q-5.72,0-8.19-2.39t-2.47-7.49a18.59,18.59,0,0,1,1.16-6.72,21.21,21.21,0,0,1,3.09-5.49,36.64,36.64,0,0,1,4.33-4.63q2.39-2.16,5-4.33,2.78-2.32,4.87-4.25a29.11,29.11,0,0,0,3.63-4,16.14,16.14,0,0,0,2.32-4.33,15.88,15.88,0,0,0,.77-5.18q0-5.87-3.32-8.88a12.28,12.28,0,0,0-8.57-3q-5.72,0-8.73,2.32a20.36,20.36,0,0,0-4.87,5.25q-0.93,1.55-1.85,3A15,15,0,0,1,82.7,75,10.81,10.81,0,0,1,80.07,77a7.72,7.72,0,0,1-3.63.77,11.2,11.2,0,0,1-3.55-.62,19,19,0,0,1-3.24-1.39,10.1,10.1,0,0,1-3.4-3.09,7.73,7.73,0,0,1-.93-4,12.58,12.58,0,0,1,1.08-5.1,21.24,21.24,0,0,1,2.78-4.63,45.18,45.18,0,0,1,4.64-5.18,32.2,32.2,0,0,1,6.8-4.94A39.55,39.55,0,0,1,90,45.15a50.49,50.49,0,0,1,12.51-1.39,40.06,40.06,0,0,1,12.28,1.85A30.44,30.44,0,0,1,125,51.1a26.45,26.45,0,0,1,7,9.12,28.84,28.84,0,0,1,2.63,12.59A29.92,29.92,0,0,1,132.75,84.16Z"/></svg>