<svg id="Layer_1" data-name="Layer 1" xmlns="http://www.w3.org/2000/svg" viewBox="0 0 200 200"><title>resource</title><path d="M94.46,192.92c-3.53-18.43-2.63-49,7.83-69.06C114.83,99.86,132.85,91,132.85,91" transform="translate(-20 -20)" fill="none" stroke="#000" stroke-linecap="round" stroke-linejoin="round" stroke-width="8.7"/><path d="M120,20A100,100,0,1,0,220,120,100.11,100.11,0,0,0,120,20Zm26.93,127.3c-14.16,19.9-40.47,21.06-40.47,21.06h-0.77a116,116,0,0,0,1.73,23.75,4.35,4.35,0,0,1-3.45,5.09,4.42,4.42,0,0,1-.82.08,4.35,4.35,0,0,1-4.27-3.53A124.36,124.36,0,0,1,97,168.37H91.8S46,130.27,87.88,85.3c25.47-27.37,69-16.82,82.08-9.29C156.34,94.35,162.07,126,146.93,147.3Z" transform="translate(-20 -20)"/></svg>